<svg xmlns="http://www.w3.org/2000/svg" viewBox="0 104.501 400 190.998" xml:space="preserve"><path d="M108.017 199.105c-7.064 36.215-32.012 32.459-62.682 32.459l12.25-63.129c33.979.001 57.049-3.666 50.432 30.67zM0 295.499h32.816l7.78-40.06c36.75 0 59.552 2.683 80.655-17.079 23.338-21.46 29.419-59.643 12.787-78.777-8.674-10.015-22.623-14.933-41.58-14.933H29.24L0 295.499zm166.05-190.998h32.638l-7.78 40.06c28.167 0 54.278-2.057 66.885 9.567 13.234 12.161 6.885 27.72-7.422 101.133h-33.084c13.77-70.999 16.363-76.9 11.355-82.266-4.828-5.186-15.828-4.113-42.384-4.113l-16.811 86.379H136.81l29.24-150.76zm198.419 94.604c-7.154 36.751-32.816 32.459-62.682 32.459l12.25-63.129c34.158.001 57.049-3.666 50.432 30.67zm-108.018 96.394h32.906l7.779-40.06c38.629 0 60 2.235 80.654-17.079 23.34-21.46 29.42-59.643 12.787-78.777-8.674-10.015-22.623-14.933-41.578-14.933H285.78l-29.329 150.849z"/></svg>